<?xml version="1.0" encoding="UTF-8"?>
<svg width="66px" height="66px" viewBox="0 0 66 66" version="1.1" xmlns="http://www.w3.org/2000/svg" xmlns:xlink="http://www.w3.org/1999/xlink">
    <!-- Generator: sketchtool 41.2 (35397) - http://www.bohemiancoding.com/sketch -->
    <title>13B24025-968D-4D58-BFB4-ED3753EF7330</title>
    <desc>Created with sketchtool.</desc>
    <defs></defs>
    <g id="Page-1" stroke="none" stroke-width="1" fill="none" fill-rule="evenodd" stroke-linecap="round" stroke-linejoin="round">
        <g id="Page-3" transform="translate(-1068.000000, -1625.000000)" stroke="#329BFF" stroke-width="2" fill="#E1F1FF">
            <g id="Features" transform="translate(0.000000, 950.000000)">
                <g id="icon-i18n" transform="translate(1069.000000, 676.000000)">
                    <path d="M28.445604,21.6854518 L36.0559441,21.6854518 L36.0559441,53.4427323 C36.0559441,58.6217461 40.3396571,62.8207871 45.6230694,62.8207871 L54.0132943,62.8207871 C59.2966507,62.8207871 63.5804196,58.6221745 63.5804196,53.4427323 L63.5804196,43.7780727 L57.034965,43.7780727 L57.034965,53.4427323 C57.034965,55.0777041 55.682101,56.4036748 54.0132943,56.4036748 L45.6230694,56.4036748 C43.9543754,56.4036748 42.6013986,55.077441 42.6013986,53.4427323 L42.6013986,21.6854518 L60.3076923,21.6854518 L63.5804196,21.6854518 L63.5804196,15.2683395 L60.3076923,15.2683395 L4.36363636,15.2683395 L1.09090909,15.2683395 L1.09090909,21.6854518 L4.36363636,21.6854518 L21.8908916,21.6854518 C21.8482767,22.5828519 21.7796102,23.5368025 21.6802107,24.5334423 C21.3470717,27.8736943 20.7246209,31.1770109 19.7528335,34.2296299 C18.9099011,36.8774841 17.8364254,39.2230319 16.5236782,41.1894008 C15.5719959,42.6149292 14.5471817,44.0243498 13.4596735,45.4129239 C11.1493766,48.3628035 8.66796574,51.0840231 6.18853309,53.5052141 C5.32332166,54.3501018 4.52222869,55.095363 3.80689692,55.7325101 C3.55985908,55.9525471 3.34226615,56.1424944 3.15682065,56.3013059 C3.05073085,56.3921588 2.98213512,56.4498394 2.95373404,56.4733085 L0.45133391,58.5411546 L4.66973996,63.4478215 L7.17214009,61.3799754 C7.374154,61.2130422 7.72665619,60.9111671 8.20831979,60.4821486 C8.99587416,59.7806727 9.86942575,58.9680029 10.8076777,58.0517904 C13.4809975,55.4412665 16.1523392,52.5117609 18.651278,49.3210157 C19.8361575,47.808114 20.9560443,46.2679407 22.0003603,44.7036559 C23.6706952,42.201655 24.9883724,39.322526 26.0010439,36.1414807 C27.1191881,32.6291197 27.8208317,28.9055302 28.1945981,25.1579236 C28.3216421,23.8841035 28.4014943,22.7169984 28.445604,21.6854518 L28.445604,21.6854518 Z" id="Shape"></path>
                    <polygon id="Shape" points="11.3566434 6.71877142 53.3146853 6.71877142 56.5874126 6.71877142 56.5874126 0.301659125 53.3146853 0.301659125 11.3566434 0.301659125 8.08391608 0.301659125 8.08391608 6.71877142"></polygon>
                </g>
            </g>
        </g>
    </g>
</svg>