<?xml version="1.0" encoding="UTF-8"?>
<svg width="24px" height="24px" viewBox="0 0 24 24" version="1.1" xmlns="http://www.w3.org/2000/svg" xmlns:xlink="http://www.w3.org/1999/xlink">
    <!-- Generator: sketchtool 41.2 (35397) - http://www.bohemiancoding.com/sketch -->
    <title>519E1F6E-8E09-4EB8-A2EE-6B5BBF656BE1</title>
    <desc>Created with sketchtool.</desc>
    <defs></defs>
    <g id="Page-1" stroke="none" stroke-width="1" fill="none" fill-rule="evenodd" opacity="0.200000003">
        <g id="Page-2" transform="translate(-759.000000, -2925.000000)">
            <g id="Team" transform="translate(0.000000, 2426.000000)">
                <g id="Social" transform="translate(731.000000, 499.000000)">
                    <g id="icon-twitter" transform="translate(28.000000, 0.000000)">
                        <path d="M12,24 C18.627417,24 24,18.627417 24,12 C24,5.372583 18.627417,0 12,0 C5.372583,0 0,5.372583 0,12 C0,18.627417 5.372583,24 12,24 Z" id="Background" fill="#000000"></path>
                        <path d="M18.1515625,9.74140625 C18.1572917,9.82161498 18.1601563,9.94192628 18.1601563,10.1023437 C18.1601563,10.8471391 18.0513032,11.5904911 17.8335938,12.3324219 C17.6158843,13.0743527 17.2850283,13.7861945 16.8410156,14.4679687 C16.397003,15.149743 15.8684926,15.7527318 15.2554688,16.2769531 C14.6424449,16.8011745 13.9033897,17.2193995 13.0382813,17.5316406 C12.1731728,17.8438818 11.2479216,18 10.2625,18 C8.70988807,18 7.28906895,17.5846396 6,16.7539062 C6.20052184,16.776823 6.4239571,16.7882812 6.6703125,16.7882812 C7.95938145,16.7882812 9.10806788,16.3929727 10.1164063,15.6023438 C9.51484074,15.5908854 8.97630446,15.4061216 8.50078125,15.0480469 C8.02525804,14.6899722 7.6986988,14.2330757 7.52109375,13.6773438 C7.7101572,13.7059897 7.88489503,13.7203125 8.0453125,13.7203125 C8.2916679,13.7203125 8.53515505,13.6888024 8.77578125,13.6257812 C8.13411138,13.4940098 7.60273648,13.1746119 7.18164063,12.6675781 C6.76054477,12.1605443 6.55,11.5718784 6.55,10.9015625 L6.55,10.8671875 C6.93958528,11.0848969 7.35781027,11.2023437 7.8046875,11.2195312 C7.42656061,10.9674467 7.12578237,10.6380229 6.90234375,10.23125 C6.67890513,9.82447713 6.5671875,9.38333571 6.5671875,8.9078125 C6.5671875,8.40364331 6.69322791,7.9367209 6.9453125,7.50703125 C7.63854513,8.36068135 8.48215649,9.04387764 9.47617188,9.55664063 C10.4701873,10.0694036 11.5343693,10.3544268 12.66875,10.4117187 C12.6229164,10.1940093 12.6,9.98203228 12.6,9.77578125 C12.6,9.00806908 12.8707004,8.35351833 13.4121094,7.81210938 C13.9535183,7.27070042 14.6080691,7 15.3757813,7 C16.1778686,7 16.8539035,7.29218458 17.4039063,7.8765625 C18.0283885,7.7562494 18.6156223,7.53281413 19.165625,7.20625 C18.9536448,7.86510746 18.546878,8.3749982 17.9453125,8.7359375 C18.4781277,8.67864555 19.0109348,8.53541781 19.54375,8.30625 C19.1598939,8.86771114 18.6958361,9.34609177 18.1515625,9.74140625 Z" id="Twitter" fill="#FFFFFF"></path>
                    </g>
                </g>
            </g>
        </g>
    </g>
</svg>