<?xml version="1.0" encoding="UTF-8"?>
<svg width="32px" height="32px" viewBox="0 0 32 32" version="1.1" xmlns="http://www.w3.org/2000/svg" xmlns:xlink="http://www.w3.org/1999/xlink">
    <!-- Generator: sketchtool 41.2 (35397) - http://www.bohemiancoding.com/sketch -->
    <title>5769593C-DE1F-4DA8-BD09-9EA51E3D825B</title>
    <desc>Created with sketchtool.</desc>
    <defs></defs>
    <g id="Page-1" stroke="none" stroke-width="1" fill="none" fill-rule="evenodd">
        <g id="Page-2" transform="translate(-150.000000, -586.000000)" fill="#FFFFFF">
            <g id="Background">
                <g id="Group-2">
                    <g id="Icon" transform="translate(150.000000, 586.000000)">
                        <path d="M16,0 C18.9027923,0 21.5798489,0.715270625 24.03125,2.14583333 C26.4826511,3.57639604 28.423604,5.51734885 29.8541667,7.96875 C31.2847294,10.4201511 32,13.0972077 32,16 C32,18.9027923 31.2847294,21.5798489 29.8541667,24.03125 C28.423604,26.4826511 26.4826511,28.423604 24.03125,29.8541667 C21.5798489,31.2847294 18.9027923,32 16,32 C13.0972077,32 10.4201511,31.2847294 7.96875,29.8541667 C5.51734885,28.423604 3.57639604,26.4826511 2.14583333,24.03125 C0.715270625,21.5798489 0,18.9027923 0,16 C0,13.0972077 0.715270625,10.4201511 2.14583333,7.96875 C3.57639604,5.51734885 5.51734885,3.57639604 7.96875,2.14583333 C10.4201511,0.715270625 13.0972077,0 16,0 L16,0 L16,0 Z M24,17.1458333 C24.4444467,16.8958321 24.6666667,16.5138915 24.6666667,16 C24.6666667,15.4861085 24.4444467,15.1041679 24,14.8541667 L12.6666667,8.1875 C12.236109,7.92360979 11.791669,7.91666542 11.3333333,8.16666667 C10.8888867,8.43055687 10.6666667,8.81944187 10.6666667,9.33333333 L10.6666667,22.6666667 C10.6666667,23.1805581 10.8888867,23.5694431 11.3333333,23.8333333 C11.5555567,23.944445 11.7777767,24 12,24 C12.2361123,24 12.4583323,23.9375006 12.6666667,23.8125 L24,17.1458333 L24,17.1458333 Z" id="icon-play"></path>
                    </g>
                </g>
            </g>
        </g>
    </g>
</svg>