<?xml version="1.0" encoding="UTF-8"?>
<svg width="81px" height="80px" viewBox="0 0 81 80" version="1.1" xmlns="http://www.w3.org/2000/svg" xmlns:xlink="http://www.w3.org/1999/xlink">
    <!-- Generator: sketchtool 41.2 (35397) - http://www.bohemiancoding.com/sketch -->
    <title>A6837428-CEE9-4377-9010-6E2F1E175C6D</title>
    <desc>Created with sketchtool.</desc>
    <defs></defs>
    <g id="Page-1" stroke="none" stroke-width="1" fill="none" fill-rule="evenodd">
        <g id="Page-3" transform="translate(-833.000000, -230.000000)">
            <g id="Header">
                <g id="icon-app" transform="translate(833.155556, 230.000000)">
                    <path d="M80.1111111,17.333959 C80.1111111,7.76067778 72.3386888,0 62.7528676,0 L17.3582435,0 C7.77155034,0 0,7.76164223 0,17.3341683 L0,62.6658317 C0,72.2392285 7.77242229,80 17.3582435,80 L62.7528676,80 C72.3395608,80 80.1111111,72.2448112 80.1111111,62.6708244 L80.1111111,17.333959 Z" id="Rectangle-25" fill="#E8008A"></path>
                    <path d="M52.4506983,33.8022311 C56.3381358,36.0272984 59.3541802,37.971707 60.6727451,39.288443 C66.5627887,45.1703174 66.5627887,54.7067199 60.6727451,60.5885942 C54.9105308,66.3428166 45.6458348,66.4676982 39.7315945,60.9632392 C39.7260086,60.9673216 39.7231728,60.9693869 39.7231728,60.9693869 L39.6933018,60.9274771 C39.5751704,60.8167731 39.4583882,60.7038122 39.3430103,60.5885942 C38.2542437,59.5013378 36.7369263,57.2583195 34.9866941,54.3239718 L19.3634061,32.404052 C19.3634061,32.404052 21.8328734,32.6982269 25.3244663,33.1673455 L15.0208333,15 L33.7782844,26.1674849 C33.2667793,22.9210988 32.9414934,20.6657061 32.9414934,20.6657061 L52.4506983,33.8022311 L52.4506983,33.8022311 Z M50.0694444,58 C45.6450299,58 42.0583333,54.418278 42.0583333,50 C42.0583333,45.581722 45.6450299,42 50.0694444,42 C54.4938589,42 58.0805556,45.581722 58.0805556,50 C58.0805556,54.418278 54.4938589,58 50.0694444,58 L50.0694444,58 Z" id="Combined-Shape" fill="#FFFFFF"></path>
                </g>
            </g>
        </g>
    </g>
</svg>