<?xml version="1.0" encoding="UTF-8"?>
<svg width="66px" height="65px" viewBox="0 0 66 65" version="1.1" xmlns="http://www.w3.org/2000/svg" xmlns:xlink="http://www.w3.org/1999/xlink">
    <!-- Generator: sketchtool 41.2 (35397) - http://www.bohemiancoding.com/sketch -->
    <title>92C923F8-CE42-4178-8869-591AE530AF3B</title>
    <desc>Created with sketchtool.</desc>
    <defs>
        <path d="M33,65.7297297 C50.673112,65.7297297 65,51.0156285 65,32.8648649 C65,14.7141012 50.673112,-1.63424829e-13 33,-1.63424829e-13 C15.326888,-1.63424829e-13 1,14.7141012 1,32.8648649 C1,51.0156285 15.326888,65.7297297 33,65.7297297 Z" id="path-1"></path>
        <mask id="mask-2" maskContentUnits="userSpaceOnUse" maskUnits="objectBoundingBox" x="0" y="0" width="64" height="65.7297297" fill="white">
            <use xlink:href="#path-1"></use>
        </mask>
    </defs>
    <g id="Page-1" stroke="none" stroke-width="1" fill="none" fill-rule="evenodd" opacity="0.200000003">
        <g id="Page-2" transform="translate(-84.000000, -1962.000000)">
            <g id="Device" transform="translate(0.000000, 1476.000000)">
                <g id="icon-prev" transform="translate(117.000000, 518.500000) scale(-1, 1) translate(-117.000000, -518.500000) translate(84.000000, 486.000000)">
                    <use id="Background" stroke="#000000" mask="url(#mask-2)" stroke-width="2" fill="#FFFFFF" transform="translate(33.000000, 32.864865) rotate(-90.000000) translate(-33.000000, -32.864865) " xlink:href="#path-1"></use>
                    <g id="Arrow-Black" transform="translate(35.000000, 33.500000) rotate(-90.000000) translate(-35.000000, -33.500000) translate(23.000000, 26.000000)" fill="#000000">
                        <polygon id="arrow-down-black" points="21.6 0 24 2.4 12 14.4 10.8 13.2 0 2.4 2.4 0 12 9.6"></polygon>
                    </g>
                </g>
            </g>
        </g>
    </g>
</svg>