<?xml version="1.0" encoding="UTF-8"?>
<svg width="24px" height="24px" viewBox="0 0 24 24" version="1.1" xmlns="http://www.w3.org/2000/svg" xmlns:xlink="http://www.w3.org/1999/xlink">
    <!-- Generator: sketchtool 41.2 (35397) - http://www.bohemiancoding.com/sketch -->
    <title>4C51A212-C629-4558-B986-774F7D9A3EE8</title>
    <desc>Created with sketchtool.</desc>
    <defs></defs>
    <g id="Page-1" stroke="none" stroke-width="1" fill="none" fill-rule="evenodd" opacity="0.200000003">
        <g id="Page-2" transform="translate(-731.000000, -2925.000000)">
            <g id="Team" transform="translate(0.000000, 2426.000000)">
                <g id="Social" transform="translate(731.000000, 499.000000)">
                    <g id="icon-facebook">
                        <circle id="Background" fill="#000000" cx="12" cy="12" r="12"></circle>
                        <path d="M10.0407436,18.9999993 L10.0407436,13.234436 L8,13.234436 L8,10.8671735 L10.0407436,10.8671735 L10.0407436,9.1223377 C10.0407436,8.12917085 10.3179418,7.36049845 10.8723466,6.81629744 C11.4267514,6.27209642 12.1665135,6 13.0916553,6 C13.8739442,6 14.4793588,6.03061085 14.9079171,6.09183346 L14.9079171,8.20400308 L13.6630635,8.2142068 C13.2004926,8.2142068 12.8892823,8.30944055 12.7294233,8.4999109 C12.5695642,8.69038126 12.4896359,8.9760825 12.4896359,9.35702321 L12.4896359,10.8671735 L14.8262873,10.8671735 L14.5201758,13.234436 L12.4896359,13.234436 L12.4896359,19 C12.4896359,18.9999993 10.0407436,18.9999993 10.0407436,18.9999993 Z" id="Facevook" fill="#FFFFFF"></path>
                    </g>
                </g>
            </g>
        </g>
    </g>
</svg>